<?xml version="1.0" standalone="no"?>
<!DOCTYPE svg PUBLIC "-//W3C//DTD SVG 20010904//EN"
 "http://www.w3.org/TR/2001/REC-SVG-20010904/DTD/svg10.dtd">
<svg version="1.0" xmlns="http://www.w3.org/2000/svg"
 width="256.000000pt" height="228.000000pt" viewBox="0 0 256.000000 228.000000"
 preserveAspectRatio="xMidYMid meet">

<g transform="translate(0.000000,228.000000) scale(0.100000,-0.100000)"
fill="#000000" stroke="none">
<path d="M683 2223 c-84 -121 -124 -224 -144 -369 -12 -91 -1 -218 26 -293
l14 -41 -42 -10 c-78 -20 -172 -60 -234 -100 -98 -65 -203 -183 -257 -292 -49
-99 -53 -117 -34 -136 19 -19 30 -15 87 38 29 27 72 60 95 74 203 119 467 83
636 -85 184 -184 211 -483 65 -704 -65 -97 -149 -161 -271 -204 -60 -21 -80
-32 -82 -47 -6 -41 22 -49 167 -48 118 0 146 4 213 26 110 37 200 90 284 170
l74 70 79 -74 c87 -82 175 -133 291 -170 63 -19 97 -23 206 -23 140 0 168 8
162 49 -2 15 -21 26 -80 46 -237 80 -379 294 -365 550 5 113 29 184 95 283
179 273 575 310 802 76 40 -42 65 -47 83 -18 26 41 -89 235 -201 341 -94 89
-198 145 -328 178 l-41 10 19 68 c28 94 28 269 0 373 -35 130 -143 319 -183
319 -34 0 -41 -24 -24 -88 56 -220 -33 -458 -222 -585 -98 -66 -176 -90 -293
-90 -117 0 -195 24 -293 90 -189 127 -278 365 -222 585 12 46 13 63 4 74 -22
26 -46 14 -86 -43z m675 -959 c47 -19 88 -58 114 -108 29 -56 22 -149 -15
-204 -82 -125 -265 -127 -352 -4 -27 40 -30 51 -30 121 0 69 3 82 29 119 54
78 167 113 254 76z"/>
<path d="M1185 1990 c-78 -8 -175 -31 -230 -54 -31 -13 -35 -19 -29 -38 11
-35 48 -90 85 -125 l34 -32 80 20 c104 25 211 24 310 -1 l79 -20 34 32 c39 37
92 115 92 135 0 18 -52 39 -153 62 -101 23 -210 31 -302 21z"/>
<path d="M373 1013 c-19 -7 -16 -60 11 -164 45 -179 123 -314 254 -441 44 -43
84 -78 88 -78 16 0 83 101 95 141 l12 38 -61 65 c-102 109 -171 246 -190 378
-6 44 -11 53 -32 59 -29 8 -159 10 -177 2z"/>
<path d="M2011 1011 c-21 -6 -27 -16 -37 -71 -28 -148 -117 -312 -214 -393
-16 -14 -30 -34 -30 -44 0 -25 44 -111 75 -146 31 -35 39 -32 136 70 133 139
214 296 246 477 15 85 15 99 2 107 -16 10 -142 10 -178 0z"/>
</g>
</svg>
