<?xml version="1.0" encoding="UTF-8"?>
<svg xmlns="http://www.w3.org/2000/svg" xmlns:xlink="http://www.w3.org/1999/xlink" width="45pt" height="17pt" viewBox="0 0 45 17" version="1.1">
<defs>
<clipPath id="clip1">
  <path d="M 29 0.644531 L 38.992188 0.644531 L 38.992188 10.304688 L 29 10.304688 Z M 29 0.644531 "/>
</clipPath>
<clipPath id="clip2">
  <path d="M 38.082031 2.441406 C 36.6875 0.578125 33.742188 0.453125 31.496094 2.160156 C 29.25 3.867188 28.558594 6.765625 29.949219 8.628906 C 31.339844 10.488281 34.289062 10.617188 36.535156 8.910156 C 38.777344 7.203125 39.472656 4.304688 38.082031 2.441406 Z M 38.082031 2.441406 "/>
</clipPath>
<clipPath id="clip3">
  <path d="M 24.226562 4.609375 L 35.824219 -4.214844 L 43.851562 6.539062 L 32.253906 15.363281 Z M 24.226562 4.609375 "/>
</clipPath>
<clipPath id="clip4">
  <path d="M 38.082031 2.441406 C 36.6875 0.578125 33.742188 0.453125 31.496094 2.160156 C 29.25 3.867188 28.558594 6.765625 29.949219 8.628906 C 31.339844 10.488281 34.289062 10.617188 36.535156 8.910156 C 38.777344 7.203125 39.472656 4.304688 38.082031 2.441406 Z M 38.082031 2.441406 "/>
</clipPath>
<clipPath id="clip5">
  <path d="M 27.457031 5.332031 L 35.578125 -0.851562 L 40.621094 5.902344 L 32.496094 12.082031 Z M 27.457031 5.332031 "/>
</clipPath>
<clipPath id="clip6">
  <path d="M 29 0.644531 L 38.992188 0.644531 L 38.992188 10.304688 L 29 10.304688 Z M 29 0.644531 "/>
</clipPath>
<clipPath id="clip7">
  <path d="M 38.082031 2.441406 C 36.6875 0.578125 33.742188 0.453125 31.496094 2.160156 C 29.25 3.867188 28.558594 6.765625 29.949219 8.628906 C 31.339844 10.488281 34.289062 10.617188 36.535156 8.910156 C 38.777344 7.203125 39.472656 4.304688 38.082031 2.441406 Z M 38.082031 2.441406 "/>
</clipPath>
<clipPath id="clip8">
  <path d="M 24.226562 4.609375 L 35.824219 -4.214844 L 43.851562 6.539062 L 32.253906 15.363281 Z M 24.226562 4.609375 "/>
</clipPath>
<clipPath id="clip9">
  <path d="M 38.082031 2.441406 C 36.6875 0.578125 33.742188 0.453125 31.496094 2.160156 C 29.25 3.867188 28.558594 6.765625 29.949219 8.628906 C 31.339844 10.488281 34.289062 10.617188 36.535156 8.910156 C 38.777344 7.203125 39.472656 4.304688 38.082031 2.441406 Z M 38.082031 2.441406 "/>
</clipPath>
<clipPath id="clip10">
  <path d="M 28.613281 9.386719 L 31.414062 -0.484375 L 39.472656 1.847656 L 36.667969 11.714844 Z M 28.613281 9.386719 "/>
</clipPath>
<clipPath id="clip11">
  <path d="M 29 0.644531 L 38.992188 0.644531 L 38.992188 10.304688 L 29 10.304688 Z M 29 0.644531 "/>
</clipPath>
<clipPath id="clip12">
  <path d="M 38.082031 2.441406 C 36.6875 0.578125 33.742188 0.453125 31.496094 2.160156 C 29.25 3.867188 28.558594 6.765625 29.949219 8.628906 C 31.339844 10.488281 34.289062 10.617188 36.535156 8.910156 C 38.777344 7.203125 39.472656 4.304688 38.082031 2.441406 Z M 38.082031 2.441406 "/>
</clipPath>
<clipPath id="clip13">
  <path d="M 24.226562 4.609375 L 35.824219 -4.214844 L 43.851562 6.539062 L 32.253906 15.363281 Z M 24.226562 4.609375 "/>
</clipPath>
<clipPath id="clip14">
  <path d="M 38.082031 2.441406 C 36.6875 0.578125 33.742188 0.453125 31.496094 2.160156 C 29.25 3.867188 28.558594 6.765625 29.949219 8.628906 C 31.339844 10.488281 34.289062 10.617188 36.535156 8.910156 C 38.777344 7.203125 39.472656 4.304688 38.082031 2.441406 Z M 38.082031 2.441406 "/>
</clipPath>
<clipPath id="clip15">
  <path d="M 27.457031 5.332031 L 35.578125 -0.851562 L 40.621094 5.902344 L 32.496094 12.082031 Z M 27.457031 5.332031 "/>
</clipPath>
<clipPath id="clip16">
  <path d="M 29 0.644531 L 38.992188 0.644531 L 38.992188 10.304688 L 29 10.304688 Z M 29 0.644531 "/>
</clipPath>
<clipPath id="clip17">
  <path d="M 38.082031 2.441406 C 36.6875 0.578125 33.742188 0.453125 31.496094 2.160156 C 29.25 3.867188 28.558594 6.765625 29.949219 8.628906 C 31.339844 10.488281 34.289062 10.617188 36.535156 8.910156 C 38.777344 7.203125 39.472656 4.304688 38.082031 2.441406 Z M 38.082031 2.441406 "/>
</clipPath>
<clipPath id="clip18">
  <path d="M 24.226562 4.609375 L 35.824219 -4.214844 L 43.851562 6.539062 L 32.253906 15.363281 Z M 24.226562 4.609375 "/>
</clipPath>
<clipPath id="clip19">
  <path d="M 38.082031 2.441406 C 36.6875 0.578125 33.742188 0.453125 31.496094 2.160156 C 29.25 3.867188 28.558594 6.765625 29.949219 8.628906 C 31.339844 10.488281 34.289062 10.617188 36.535156 8.910156 C 38.777344 7.203125 39.472656 4.304688 38.082031 2.441406 Z M 38.082031 2.441406 "/>
</clipPath>
<clipPath id="clip20">
  <path d="M 28.613281 9.386719 L 31.414062 -0.484375 L 39.472656 1.847656 L 36.667969 11.714844 Z M 28.613281 9.386719 "/>
</clipPath>
<clipPath id="clip21">
  <path d="M 29 0.644531 L 38.992188 0.644531 L 38.992188 10.304688 L 29 10.304688 Z M 29 0.644531 "/>
</clipPath>
<clipPath id="clip22">
  <path d="M 38.082031 2.441406 C 36.6875 0.578125 33.742188 0.453125 31.496094 2.160156 C 29.25 3.867188 28.558594 6.765625 29.949219 8.628906 C 31.339844 10.488281 34.289062 10.617188 36.535156 8.910156 C 38.777344 7.203125 39.472656 4.304688 38.082031 2.441406 Z M 38.082031 2.441406 "/>
</clipPath>
<clipPath id="clip23">
  <path d="M 24.226562 4.609375 L 35.824219 -4.214844 L 43.851562 6.539062 L 32.253906 15.363281 Z M 24.226562 4.609375 "/>
</clipPath>
<clipPath id="clip24">
  <path d="M 38.082031 2.441406 C 36.6875 0.578125 33.742188 0.453125 31.496094 2.160156 C 29.25 3.867188 28.558594 6.765625 29.949219 8.628906 C 31.339844 10.488281 34.289062 10.617188 36.535156 8.910156 C 38.777344 7.203125 39.472656 4.304688 38.082031 2.441406 Z M 38.082031 2.441406 "/>
</clipPath>
<clipPath id="clip25">
  <path d="M 29 0.644531 L 38.992188 0.644531 L 38.992188 10.304688 L 29 10.304688 Z M 29 0.644531 "/>
</clipPath>
<clipPath id="clip26">
  <path d="M 38.082031 2.441406 C 36.6875 0.578125 33.742188 0.453125 31.496094 2.160156 C 29.25 3.867188 28.558594 6.765625 29.949219 8.628906 C 31.339844 10.488281 34.289062 10.617188 36.535156 8.910156 C 38.777344 7.203125 39.472656 4.304688 38.082031 2.441406 Z M 38.082031 2.441406 "/>
</clipPath>
<clipPath id="clip27">
  <path d="M 24.226562 4.609375 L 35.824219 -4.214844 L 43.851562 6.539062 L 32.253906 15.363281 Z M 24.226562 4.609375 "/>
</clipPath>
<clipPath id="clip28">
  <path d="M 31.320312 2.574219 L 37 2.574219 L 37 8.371094 L 31.320312 8.371094 Z M 31.320312 2.574219 "/>
</clipPath>
<clipPath id="clip29">
  <path d="M 38.082031 2.441406 C 36.6875 0.578125 33.742188 0.453125 31.496094 2.160156 C 29.25 3.867188 28.558594 6.765625 29.949219 8.628906 C 31.339844 10.488281 34.289062 10.617188 36.535156 8.910156 C 38.777344 7.203125 39.472656 4.304688 38.082031 2.441406 Z M 38.082031 2.441406 "/>
</clipPath>
<clipPath id="clip30">
  <path d="M 24.226562 4.609375 L 35.824219 -4.214844 L 43.851562 6.539062 L 32.253906 15.363281 Z M 24.226562 4.609375 "/>
</clipPath>
</defs>
<g id="surface1">
<path style=" stroke:none;fill-rule:nonzero;fill:rgb(0%,0%,0%);fill-opacity:1;" d="M 23.097656 5.546875 L 25.222656 5.40625 C 25.273438 5.757812 25.359375 6.019531 25.503906 6.207031 C 25.742188 6.5 26.066406 6.644531 26.492188 6.644531 C 26.804688 6.644531 27.058594 6.574219 27.230469 6.417969 C 27.386719 6.296875 27.484375 6.101562 27.484375 5.894531 C 27.484375 5.699219 27.398438 5.515625 27.242188 5.390625 C 27.082031 5.246094 26.703125 5.097656 26.105469 4.964844 C 25.125 4.746094 24.425781 4.453125 24.011719 4.078125 C 23.601562 3.726562 23.367188 3.210938 23.382812 2.667969 C 23.382812 2.292969 23.496094 1.917969 23.707031 1.605469 C 23.949219 1.253906 24.28125 0.976562 24.675781 0.824219 C 25.105469 0.636719 25.699219 0.539062 26.453125 0.539062 C 27.375 0.539062 28.074219 0.710938 28.5625 1.058594 C 29.046875 1.402344 29.335938 1.957031 29.425781 2.714844 L 27.324219 2.835938 C 27.269531 2.511719 27.15625 2.277344 26.96875 2.121094 C 26.785156 1.964844 26.542969 1.890625 26.226562 1.890625 C 25.96875 1.890625 25.773438 1.949219 25.644531 2.054688 C 25.523438 2.152344 25.441406 2.300781 25.449219 2.460938 C 25.449219 2.585938 25.515625 2.699219 25.613281 2.773438 C 25.71875 2.871094 25.96875 2.960938 26.363281 3.042969 C 27.339844 3.253906 28.035156 3.464844 28.464844 3.683594 C 28.890625 3.90625 29.199219 4.175781 29.386719 4.492188 C 29.578125 4.820312 29.675781 5.195312 29.667969 5.578125 C 29.667969 6.035156 29.539062 6.492188 29.28125 6.875 C 29.015625 7.273438 28.640625 7.582031 28.203125 7.773438 C 27.746094 7.976562 27.164062 8.082031 26.46875 8.082031 C 25.242188 8.082031 24.390625 7.84375 23.914062 7.363281 C 23.4375 6.882812 23.15625 6.277344 23.097656 5.546875 Z M 0.550781 7.957031 L 0.550781 0.667969 L 4.273438 0.667969 C 4.960938 0.667969 5.492188 0.726562 5.859375 0.847656 C 6.210938 0.964844 6.53125 1.199219 6.738281 1.515625 C 6.972656 1.867188 7.085938 2.277344 7.078125 2.699219 C 7.101562 3.414062 6.738281 4.101562 6.117188 4.460938 C 5.875 4.601562 5.609375 4.695312 5.332031 4.746094 C 5.535156 4.804688 5.738281 4.898438 5.914062 5.015625 C 6.050781 5.128906 6.164062 5.257812 6.269531 5.398438 C 6.390625 5.535156 6.496094 5.691406 6.585938 5.855469 L 7.667969 7.96875 L 5.132812 7.96875 L 3.933594 5.726562 C 3.78125 5.4375 3.652344 5.253906 3.53125 5.160156 C 3.367188 5.046875 3.175781 4.992188 2.980469 4.992188 L 2.785156 4.992188 L 2.785156 7.949219 L 0.550781 7.949219 Z M 2.785156 3.621094 L 3.734375 3.621094 C 3.933594 3.605469 4.128906 3.570312 4.320312 3.523438 C 4.46875 3.5 4.597656 3.414062 4.6875 3.296875 C 4.902344 3 4.871094 2.585938 4.605469 2.332031 C 4.460938 2.210938 4.175781 2.144531 3.773438 2.144531 L 2.785156 2.144531 Z M 0.0390625 14.207031 L 2.164062 14.070312 C 2.214844 14.417969 2.300781 14.679688 2.449219 14.867188 C 2.675781 15.160156 3.007812 15.316406 3.433594 15.316406 C 3.75 15.316406 4 15.242188 4.167969 15.085938 C 4.332031 14.957031 4.425781 14.769531 4.425781 14.5625 C 4.425781 14.371094 4.339844 14.183594 4.183594 14.058594 C 4.023438 13.914062 3.644531 13.765625 3.039062 13.636719 C 2.058594 13.414062 1.359375 13.121094 0.945312 12.746094 C 0.535156 12.394531 0.300781 11.882812 0.316406 11.335938 C 0.316406 10.960938 0.429688 10.585938 0.640625 10.273438 C 0.882812 9.925781 1.214844 9.648438 1.609375 9.492188 C 2.039062 9.304688 2.632812 9.207031 3.386719 9.207031 C 4.308594 9.207031 5.007812 9.378906 5.492188 9.730469 C 5.980469 10.078125 6.261719 10.625 6.347656 11.382812 L 4.25 11.507812 C 4.195312 11.179688 4.078125 10.945312 3.894531 10.789062 C 3.71875 10.636719 3.464844 10.558594 3.152344 10.570312 C 2.894531 10.570312 2.699219 10.625 2.570312 10.742188 C 2.441406 10.839844 2.367188 10.984375 2.375 11.148438 C 2.375 11.269531 2.441406 11.382812 2.535156 11.457031 C 2.640625 11.554688 2.894531 11.644531 3.289062 11.726562 C 4.265625 11.9375 4.960938 12.152344 5.386719 12.371094 C 5.816406 12.59375 6.125 12.859375 6.308594 13.179688 C 6.503906 13.503906 6.601562 13.878906 6.601562 14.253906 C 6.601562 14.710938 6.464844 15.160156 6.210938 15.542969 C 5.949219 15.941406 5.574219 16.25 5.136719 16.441406 C 4.679688 16.644531 4.097656 16.75 3.402344 16.75 C 2.175781 16.75 1.324219 16.511719 0.847656 16.03125 C 0.371094 15.542969 0.105469 14.9375 0.0390625 14.207031 Z M 0.0390625 14.207031 "/>
<path style=" stroke:none;fill-rule:nonzero;fill:rgb(0%,0%,0%);fill-opacity:1;" d="M 10.785156 13.636719 L 12.742188 14.230469 C 12.636719 14.726562 12.417969 15.199219 12.121094 15.617188 C 11.84375 15.984375 11.480469 16.269531 11.070312 16.457031 C 10.648438 16.644531 10.113281 16.742188 9.46875 16.742188 C 8.6875 16.742188 8.039062 16.628906 7.546875 16.398438 C 7.046875 16.171875 6.617188 15.765625 6.253906 15.183594 C 5.890625 14.605469 5.710938 13.863281 5.710938 12.960938 C 5.710938 11.75 6.027344 10.820312 6.667969 10.175781 C 7.304688 9.535156 8.199219 9.207031 9.363281 9.207031 C 10.277344 9.207031 10.988281 9.394531 11.511719 9.761719 C 12.03125 10.136719 12.417969 10.707031 12.675781 11.476562 L 10.707031 11.914062 C 10.65625 11.746094 10.585938 11.574219 10.488281 11.425781 C 10.367188 11.253906 10.210938 11.125 10.027344 11.023438 C 9.839844 10.925781 9.628906 10.886719 9.421875 10.886719 C 8.910156 10.886719 8.523438 11.089844 8.257812 11.507812 C 8.054688 11.808594 7.949219 12.289062 7.949219 12.941406 C 7.949219 13.75 8.074219 14.304688 8.316406 14.605469 C 8.558594 14.910156 8.894531 15.054688 9.339844 15.054688 C 9.769531 15.054688 10.09375 14.929688 10.308594 14.695312 C 10.527344 14.445312 10.6875 14.089844 10.785156 13.636719 Z M 15.351562 9.328125 L 17.582031 9.328125 L 17.582031 11.882812 L 20.019531 11.882812 L 20.019531 9.328125 L 22.265625 9.328125 L 22.265625 16.621094 L 20.019531 16.621094 L 20.019531 13.667969 L 17.582031 13.667969 L 17.582031 16.621094 L 15.351562 16.621094 Z M 15.351562 9.328125 "/>
<path style=" stroke:none;fill-rule:nonzero;fill:rgb(0%,0%,0%);fill-opacity:1;" d="M 21.960938 12.972656 C 21.960938 11.785156 22.292969 10.855469 22.945312 10.195312 C 23.601562 9.535156 24.523438 9.199219 25.691406 9.199219 C 26.898438 9.199219 27.816406 9.527344 28.472656 10.175781 C 29.125 10.828125 29.449219 11.746094 29.449219 12.917969 C 29.449219 13.773438 29.304688 14.464844 29.019531 15.015625 C 28.746094 15.550781 28.320312 15.992188 27.792969 16.285156 C 27.25 16.585938 26.582031 16.742188 25.78125 16.742188 C 24.964844 16.742188 24.292969 16.613281 23.761719 16.351562 C 23.214844 16.074219 22.757812 15.640625 22.460938 15.113281 C 22.128906 14.542969 21.960938 13.832031 21.960938 12.972656 Z M 24.191406 12.980469 C 24.191406 13.714844 24.328125 14.246094 24.59375 14.574219 C 24.863281 14.890625 25.230469 15.054688 25.699219 15.054688 C 26.175781 15.054688 26.550781 14.898438 26.816406 14.582031 C 27.082031 14.261719 27.210938 13.703125 27.210938 12.882812 C 27.210938 12.199219 27.074219 11.695312 26.800781 11.382812 C 26.523438 11.066406 26.152344 10.910156 25.683594 10.910156 C 25.273438 10.894531 24.875 11.074219 24.601562 11.390625 C 24.328125 11.710938 24.191406 12.238281 24.191406 12.980469 Z M 31.734375 12.972656 C 31.734375 11.785156 32.066406 10.855469 32.722656 10.195312 C 33.375 9.535156 34.296875 9.199219 35.46875 9.199219 C 36.671875 9.199219 37.601562 9.527344 38.246094 10.175781 C 38.894531 10.828125 39.226562 11.746094 39.226562 12.917969 C 39.226562 13.773438 39.082031 14.464844 38.796875 15.015625 C 38.523438 15.550781 38.09375 15.992188 37.566406 16.285156 C 37.027344 16.585938 36.355469 16.742188 35.558594 16.742188 C 34.742188 16.742188 34.070312 16.613281 33.539062 16.351562 C 32.988281 16.074219 32.535156 15.640625 32.238281 15.113281 C 31.90625 14.542969 31.734375 13.832031 31.734375 12.972656 Z M 33.964844 12.980469 C 33.964844 13.714844 34.101562 14.246094 34.371094 14.574219 C 34.636719 14.890625 35.007812 15.054688 35.476562 15.054688 C 35.953125 15.054688 36.324219 14.898438 36.59375 14.582031 C 36.859375 14.261719 36.988281 13.703125 36.988281 12.882812 C 36.988281 12.199219 36.851562 11.695312 36.574219 11.382812 C 36.300781 11.066406 35.929688 10.910156 35.460938 10.910156 C 35.050781 10.894531 34.644531 11.074219 34.378906 11.390625 C 34.101562 11.710938 33.964844 12.238281 33.964844 12.980469 Z M 33.964844 12.980469 "/>
<path style=" stroke:none;fill-rule:nonzero;fill:rgb(0%,0%,0%);fill-opacity:1;" d="M 38.992188 9.328125 L 41.222656 9.328125 L 41.222656 14.824219 L 44.703125 14.824219 L 44.703125 16.621094 L 38.984375 16.621094 L 38.984375 9.328125 Z M 38.992188 9.328125 "/>
<path style=" stroke:none;fill-rule:nonzero;fill:rgb(100%,100%,100%);fill-opacity:1;" d="M 38.082031 2.441406 C 36.6875 0.578125 33.742188 0.453125 31.496094 2.160156 C 29.25 3.867188 28.558594 6.765625 29.949219 8.628906 C 31.339844 10.488281 34.289062 10.617188 36.535156 8.910156 C 38.777344 7.203125 39.472656 4.304688 38.082031 2.441406 Z M 38.082031 2.441406 "/>
<g clip-path="url(#clip1)" clip-rule="nonzero">
<g clip-path="url(#clip2)" clip-rule="nonzero">
<path style=" stroke:none;fill-rule:nonzero;fill:rgb(100%,100%,100%);fill-opacity:1;" d="M 24.226562 4.609375 L 35.824219 -4.214844 L 43.851562 6.539062 L 32.253906 15.363281 Z M 24.226562 4.609375 "/>
<g clip-path="url(#clip3)" clip-rule="nonzero">
<path style=" stroke:none;fill-rule:nonzero;fill:rgb(100%,100%,100%);fill-opacity:1;" d="M 38.082031 2.441406 C 36.6875 0.578125 33.742188 0.453125 31.496094 2.160156 C 29.25 3.867188 28.558594 6.765625 29.949219 8.628906 C 31.339844 10.488281 34.289062 10.617188 36.535156 8.910156 C 38.777344 7.203125 39.472656 4.304688 38.082031 2.441406 Z M 38.082031 2.441406 "/>
<g clip-path="url(#clip4)" clip-rule="nonzero">
<path style=" stroke:none;fill-rule:nonzero;fill:rgb(100%,100%,100%);fill-opacity:1;" d="M 27.457031 5.332031 L 35.578125 -0.851562 L 40.621094 5.902344 L 32.496094 12.082031 Z M 27.457031 5.332031 "/>
<g clip-path="url(#clip5)" clip-rule="nonzero">
<path style="fill-rule:nonzero;fill:rgb(100%,100%,100%);fill-opacity:1;stroke-width:4;stroke-linecap:butt;stroke-linejoin:miter;stroke:rgb(0%,0%,0%);stroke-opacity:1;stroke-miterlimit:10;" d="M 483.533279 67.900711 C 483.499325 39.265893 455.308151 16.102264 420.508567 16.088071 C 385.708983 16.073877 357.484753 39.307863 357.480096 67.913583 C 357.504265 96.48105 385.705224 119.71203 420.504808 119.726223 C 455.265779 119.71132 483.528622 96.506431 483.533279 67.900711 Z M 483.533279 67.900711 " transform="matrix(0.0645239,-0.0490798,0.048624,0.0651287,3.580989,21.750826)"/>
</g>
</g>
</g>
</g>
</g>
<g clip-path="url(#clip6)" clip-rule="nonzero">
<g clip-path="url(#clip7)" clip-rule="nonzero">
<g clip-path="url(#clip8)" clip-rule="nonzero">
<g clip-path="url(#clip9)" clip-rule="nonzero">
<g clip-path="url(#clip10)" clip-rule="nonzero">
<path style="fill:none;stroke-width:4;stroke-linecap:butt;stroke-linejoin:miter;stroke:rgb(0%,0%,0%);stroke-opacity:1;stroke-miterlimit:10;" d="M 357.798741 17.046531 L 483.707541 16.982591 L 483.715238 120.688329 L 357.796652 120.684919 Z M 357.798741 17.046531 " transform="matrix(0.0645245,-0.0490786,0.0486229,0.0651293,3.541394,21.782068)"/>
</g>
</g>
</g>
</g>
</g>
<g clip-path="url(#clip11)" clip-rule="nonzero">
<g clip-path="url(#clip12)" clip-rule="nonzero">
<g clip-path="url(#clip13)" clip-rule="nonzero">
<g clip-path="url(#clip14)" clip-rule="nonzero">
<path style="fill:none;stroke-width:4;stroke-linecap:butt;stroke-linejoin:miter;stroke:rgb(0%,0%,0%);stroke-opacity:1;stroke-miterlimit:10;" d="M 483.533279 67.900711 C 483.499325 39.265893 455.308151 16.102264 420.508567 16.088071 C 385.708983 16.073877 357.484753 39.307863 357.480096 67.913583 C 357.504265 96.48105 385.705224 119.71203 420.504808 119.726223 C 455.265779 119.71132 483.528622 96.506431 483.533279 67.900711 Z M 483.533279 67.900711 " transform="matrix(0.0645239,-0.0490798,0.048624,0.0651287,3.580989,21.750826)"/>
<path style=" stroke:none;fill-rule:nonzero;fill:rgb(100%,100%,100%);fill-opacity:1;" d="M 27.457031 5.332031 L 35.578125 -0.851562 L 40.621094 5.902344 L 32.496094 12.082031 Z M 27.457031 5.332031 "/>
<g clip-path="url(#clip15)" clip-rule="nonzero">
<path style="fill-rule:nonzero;fill:rgb(100%,100%,100%);fill-opacity:1;stroke-width:4;stroke-linecap:butt;stroke-linejoin:miter;stroke:rgb(0%,0%,0%);stroke-opacity:1;stroke-miterlimit:10;" d="M 483.533279 67.900711 C 483.499325 39.265893 455.308151 16.102264 420.508567 16.088071 C 385.708983 16.073877 357.484753 39.307863 357.480096 67.913583 C 357.504265 96.48105 385.705224 119.71203 420.504808 119.726223 C 455.265779 119.71132 483.528622 96.506431 483.533279 67.900711 Z M 483.533279 67.900711 " transform="matrix(0.0645239,-0.0490798,0.048624,0.0651287,3.580989,21.750826)"/>
</g>
</g>
</g>
</g>
</g>
<g clip-path="url(#clip16)" clip-rule="nonzero">
<g clip-path="url(#clip17)" clip-rule="nonzero">
<g clip-path="url(#clip18)" clip-rule="nonzero">
<g clip-path="url(#clip19)" clip-rule="nonzero">
<g clip-path="url(#clip20)" clip-rule="nonzero">
<path style="fill:none;stroke-width:4;stroke-linecap:butt;stroke-linejoin:miter;stroke:rgb(0%,0%,0%);stroke-opacity:1;stroke-miterlimit:10;" d="M 357.798741 17.046531 L 483.707541 16.982591 L 483.715238 120.688329 L 357.796652 120.684919 Z M 357.798741 17.046531 " transform="matrix(0.0645245,-0.0490786,0.0486229,0.0651293,3.541394,21.782068)"/>
</g>
</g>
</g>
</g>
</g>
<g clip-path="url(#clip21)" clip-rule="nonzero">
<g clip-path="url(#clip22)" clip-rule="nonzero">
<g clip-path="url(#clip23)" clip-rule="nonzero">
<g clip-path="url(#clip24)" clip-rule="nonzero">
<path style="fill:none;stroke-width:4;stroke-linecap:butt;stroke-linejoin:miter;stroke:rgb(0%,0%,0%);stroke-opacity:1;stroke-miterlimit:10;" d="M 330.933584 -14.198702 L 510.694276 -14.223343 L 510.680913 150.884431 L 330.92022 150.909072 Z M 330.933584 -14.198702 " transform="matrix(0.0645239,-0.0490798,0.048624,0.0651287,3.563847,21.776263)"/>
</g>
</g>
</g>
</g>
<g clip-path="url(#clip25)" clip-rule="nonzero">
<g clip-path="url(#clip26)" clip-rule="nonzero">
<g clip-path="url(#clip27)" clip-rule="nonzero">
<path style="fill:none;stroke-width:4;stroke-linecap:butt;stroke-linejoin:miter;stroke:rgb(0%,0%,0%);stroke-opacity:1;stroke-miterlimit:10;" d="M 483.533279 67.900711 C 483.499325 39.265893 455.308151 16.102264 420.508567 16.088071 C 385.708983 16.073877 357.484753 39.307863 357.480096 67.913583 C 357.504265 96.48105 385.705224 119.71203 420.504808 119.726223 C 455.265779 119.71132 483.528622 96.506431 483.533279 67.900711 Z M 483.533279 67.900711 " transform="matrix(0.0645239,-0.0490798,0.048624,0.0651287,3.580989,21.750826)"/>
</g>
</g>
</g>
<g clip-path="url(#clip28)" clip-rule="nonzero">
<g clip-path="url(#clip29)" clip-rule="nonzero">
<g clip-path="url(#clip30)" clip-rule="nonzero">
<path style=" stroke:none;fill-rule:nonzero;fill:rgb(0%,0%,0%);fill-opacity:1;" d="M 31.742188 5 L 32.550781 4.425781 L 33.546875 5.855469 C 33.714844 6.085938 33.84375 6.328125 33.941406 6.597656 C 33.996094 6.800781 33.984375 7.019531 33.898438 7.214844 C 33.796875 7.464844 33.625 7.667969 33.402344 7.8125 C 33.132812 8 32.90625 8.105469 32.714844 8.140625 C 32.527344 8.171875 32.335938 8.140625 32.15625 8.058594 C 31.960938 7.957031 31.792969 7.820312 31.664062 7.640625 L 32.355469 6.988281 C 32.414062 7.078125 32.488281 7.160156 32.570312 7.222656 C 32.625 7.265625 32.6875 7.289062 32.761719 7.289062 C 32.820312 7.289062 32.875 7.265625 32.917969 7.234375 C 32.996094 7.183594 33.054688 7.085938 33.042969 6.988281 C 33.019531 6.847656 32.964844 6.710938 32.875 6.605469 Z M 34.167969 5.902344 L 34.902344 5.316406 C 34.984375 5.414062 35.089844 5.488281 35.203125 5.527344 C 35.363281 5.578125 35.535156 5.546875 35.671875 5.4375 C 35.769531 5.375 35.847656 5.285156 35.878906 5.167969 C 35.929688 5.023438 35.847656 4.859375 35.703125 4.8125 C 35.679688 4.804688 35.65625 4.792969 35.628906 4.792969 C 35.535156 4.785156 35.363281 4.828125 35.113281 4.933594 C 34.703125 5.105469 34.378906 5.167969 34.136719 5.148438 C 33.898438 5.121094 33.683594 5 33.554688 4.792969 C 33.457031 4.65625 33.410156 4.492188 33.402344 4.332031 C 33.402344 4.144531 33.449219 3.953125 33.554688 3.800781 C 33.707031 3.578125 33.894531 3.394531 34.121094 3.246094 C 34.460938 3.007812 34.757812 2.894531 35.015625 2.894531 C 35.277344 2.894531 35.519531 3.019531 35.742188 3.269531 L 35.015625 3.847656 C 34.871094 3.664062 34.597656 3.621094 34.410156 3.769531 L 34.386719 3.792969 C 34.304688 3.839844 34.25 3.914062 34.21875 4.003906 C 34.191406 4.070312 34.207031 4.144531 34.25 4.199219 C 34.28125 4.242188 34.328125 4.273438 34.386719 4.273438 C 34.449219 4.28125 34.566406 4.25 34.722656 4.175781 C 35.128906 4.003906 35.4375 3.90625 35.644531 3.875 C 35.824219 3.839844 36.011719 3.859375 36.179688 3.929688 C 36.332031 3.996094 36.460938 4.109375 36.550781 4.25 C 36.664062 4.410156 36.730469 4.609375 36.738281 4.8125 C 36.746094 5.023438 36.6875 5.226562 36.574219 5.40625 C 36.429688 5.625 36.246094 5.816406 36.023438 5.960938 C 35.582031 6.269531 35.21875 6.402344 34.925781 6.355469 C 34.613281 6.304688 34.355469 6.140625 34.167969 5.902344 Z M 34.167969 5.902344 "/>
</g>
</g>
</g>
</g>
</svg>
